<?xml version="1.0" encoding="UTF-8"?>
<!-- Wingosy desktop launcher: gradient gear, white four-pane hub. Trademark review before shipping. -->
<svg xmlns="http://www.w3.org/2000/svg" width="512" height="512" viewBox="0 0 461.335 461.335">
  <defs>
    <linearGradient id="bg" gradientUnits="userSpaceOnUse" x1="461.335" y1="0" x2="0" y2="461.335">
      <stop offset="0%" stop-color="#7986CB"/>
      <stop offset="100%" stop-color="#303F9F"/>
    </linearGradient>
    <mask id="gearHubHole" maskUnits="objectBoundingBox" maskContentUnits="objectBoundingBox">
      <rect x="0" y="0" width="1" height="1" fill="white"/>
      <circle cx="0.5" cy="0.5" r="0.135" fill="black"/>
    </mask>
  </defs>

  <rect width="461.335" height="461.335" fill="url(#bg)"/>

  <g transform="translate(0 139) translate(230.667 230.667) scale(0.9) translate(-230.667 -230.667)">
    <path fill="#FFFFFF" mask="url(#gearHubHole)" d="M441.333,210.668H413.32c-3.87-35.745-17.991-68.41-39.364-95.005l19.816-19.816c7.81-7.811,7.81-20.474,0-28.284c-7.811-7.811-20.475-7.811-28.285,0l-19.816,19.816c-26.595-21.373-59.26-35.493-95.005-39.363V20.001c0-11.046-8.954-20-20-20c-11.046,0-20,8.954-20,20v28.013c-35.745,3.87-68.411,17.991-95.006,39.364L95.845,67.561c-7.811-7.811-20.474-7.811-28.284,0c-7.81,7.811-7.811,20.474,0,28.284l19.816,19.816c-21.373,26.595-35.494,59.26-39.364,95.006H20c-11.046,0-20,8.954-20,20s8.954,20,20,20h28.013c3.87,35.745,17.991,68.411,39.364,95.006l-19.816,19.816c-7.811,7.811-7.811,20.474,0,28.284c3.905,3.905,9.023,5.858,14.142,5.858s10.237-1.953,14.142-5.858l19.816-19.816c26.595,21.373,59.26,35.494,95.006,39.364v28.013c0,11.046,8.954,20,20,20s20-8.954,20-20v-28.014c35.745-3.87,68.411-17.991,95.006-39.363l19.816,19.816c3.905,3.905,9.024,5.858,14.143,5.858s10.237-1.953,14.143-5.858c7.81-7.811,7.81-20.474,0-28.284l-19.816-19.816c21.373-26.595,35.493-59.26,39.363-95.005h28.013c11.046,0,20-8.954,20-20C461.335,219.623,452.379,210.668,441.333,210.668zM115.861,144.146l39.524,39.524c-5.129,8.199-8.961,17.292-11.196,26.997H88.307C91.661,186.431,101.095,163.655,115.861,144.146zM88.307,250.668h55.882c2.235,9.705,6.067,18.798,11.196,26.997l-39.524,39.525C101.095,297.679,91.661,274.904,88.307,250.668zM210.667,373.027c-24.237-3.354-47.013-12.788-66.522-27.554l39.525-39.524c8.199,5.129,17.292,8.961,26.997,11.196V373.027zM210.667,144.189c-9.705,2.235-18.798,6.067-26.997,11.196l-39.524-39.524c19.509-14.766,42.284-24.2,66.521-27.554V144.189zM250.667,88.308c24.236,3.354,47.011,12.788,66.52,27.554l-39.524,39.524c-8.198-5.129-17.292-8.961-26.996-11.196V88.308zM250.667,373.027v-55.882c9.705-2.235,18.798-6.067,26.997-11.196l39.524,39.524C297.678,360.238,274.903,369.673,250.667,373.027zM345.472,317.189l-39.525-39.524c5.129-8.199,8.961-17.292,11.196-26.997h55.882C369.672,274.904,360.238,297.679,345.472,317.189zM317.144,210.668c-2.235-9.705-6.067-18.798-11.196-26.996l39.524-39.524c14.766,19.508,24.2,42.283,27.554,66.52H317.144z"/>

    <g transform="translate(230.667 230.667)">
      <g transform="translate(-37.5 -37.5)" fill="#FFFFFF">
        <rect x="0" y="0" width="34" height="34" rx="3.5"/>
        <rect x="41" y="0" width="34" height="34" rx="3.5"/>
        <rect x="0" y="41" width="34" height="34" rx="3.5"/>
        <rect x="41" y="41" width="34" height="34" rx="3.5"/>
      </g>
    </g>
  </g>
</svg>
